<svg xmlns="http://www.w3.org/2000/svg" xmlns:xlink="http://www.w3.org/1999/xlink" viewBox="0 0 1920 1080"><defs><style>.cls-1{fill:#5ebfbf;}.cls-2,.cls-4,.cls-6,.cls-7{fill:#470099;}.cls-2,.cls-3{opacity:0.1;}.cls-3,.cls-5,.cls-8,.cls-9{fill:#0c869b;}.cls-4,.cls-5{opacity:0.2;}.cls-6,.cls-8{opacity:0.3;}.cls-7,.cls-9{opacity:0.4;}.cls-10{fill:url(#linear-gradient);}.cls-11{fill:url(#linear-gradient-2);}.cls-12{fill:url(#linear-gradient-3);}.cls-13{fill:url(#linear-gradient-4);}</style><linearGradient id="linear-gradient" x1="1461.82" y1="804.9" x2="1718.31" y2="1061.39" gradientUnits="userSpaceOnUse"><stop offset="0" stop-color="#204473"/><stop offset="1" stop-color="#011328"/></linearGradient><linearGradient id="linear-gradient-2" x1="1328.95" y1="796.8" x2="1884.6" y2="1175.38" gradientUnits="userSpaceOnUse"><stop offset="0" stop-color="#5ebfbf"/><stop offset="1" stop-color="#0c869b"/></linearGradient><linearGradient id="linear-gradient-3" x1="1643.43" y1="488.07" x2="2095.24" y2="806.8" xlink:href="#linear-gradient-2"/><linearGradient id="linear-gradient-4" x1="1433.55" y1="680.07" x2="1969.46" y2="1027.9" xlink:href="#linear-gradient-2"/><symbol id="star" data-name="star" viewBox="0 0 17 17"><path class="cls-1" d="M8.47,0c0,2.55-2.66,8.5-2.66,8.5h5.32S8.47,2.55,8.47,0Z"/><path class="cls-1" d="M8.47,17c0-2.55-2.66-8.5-2.66-8.5h5.31S8.47,14.45,8.47,17Z"/><path class="cls-1" d="M0,8.48c2.55,0,8.5,2.66,8.5,2.66V5.82S2.55,8.48,0,8.48Z"/><path class="cls-1" d="M17,8.48c-2.55,0-8.5,2.66-8.5,2.66V5.82S14.45,8.48,17,8.48Z"/></symbol></defs><g id="stars"><use width="17" height="17" transform="translate(209.78 145.79)" xlink:href="#star"/><use width="17" height="17" transform="translate(208.95 159.62)" xlink:href="#star"/><use width="17" height="17" transform="translate(228.31 362.82)" xlink:href="#star"/><use width="17" height="17" transform="translate(250.33 504.12) rotate(0.75)" xlink:href="#star"/><use width="17" height="17" transform="translate(248.34 805.85) rotate(1.67)" xlink:href="#star"/><use width="17" height="17" transform="translate(780.49 1044.37)" xlink:href="#star"/><use width="17" height="17" transform="translate(1065.33 953.98)" xlink:href="#star"/><use width="17" height="17" transform="translate(1290.43 938.68)" xlink:href="#star"/><use width="17" height="17" transform="translate(1355.91 924.23)" xlink:href="#star"/><use width="17" height="17" transform="translate(1364.9 935.23)" xlink:href="#star"/><use width="17" height="17" transform="translate(1593.5 810.3)" xlink:href="#star"/><use width="17" height="17" transform="translate(1892.65 251.78)" xlink:href="#star"/><use width="17" height="17" transform="translate(1324.63 412.31) rotate(-45.6)" xlink:href="#star"/><use width="17" height="17" transform="matrix(0.97, 0.26, -0.26, 0.97, 986.7, 558.61)" xlink:href="#star"/><use width="17" height="17" transform="translate(990.3 614.08) rotate(-15.29)" xlink:href="#star"/><use width="17" height="17" transform="translate(1377.03 706.43) rotate(6.73)" xlink:href="#star"/><use width="17" height="17" transform="translate(1771.9 616.72)" xlink:href="#star"/><use width="17" height="17" transform="translate(1505.93 437.06) rotate(21.85)" xlink:href="#star"/><use width="17" height="17" transform="translate(812.66 439.74) rotate(-7.89)" xlink:href="#star"/><use width="17" height="17" transform="translate(523.35 509.7) rotate(6.13)" xlink:href="#star"/><use width="17" height="17" transform="translate(427.92 533.45) rotate(-1.04)" xlink:href="#star"/><use width="17" height="17" transform="translate(533.39 718.34)" xlink:href="#star"/><use width="17" height="17" transform="matrix(0.99, 0.16, -0.16, 0.99, 1118.62, 584.16)" xlink:href="#star"/><use width="17" height="17" transform="translate(1270.94 493.47) rotate(9.72)" xlink:href="#star"/><use width="17" height="17" transform="translate(1152.58 246.63) rotate(-7.97)" xlink:href="#star"/><use width="17" height="17" transform="translate(849.57 91.97) rotate(4.21)" xlink:href="#star"/><use width="17" height="17" transform="translate(380.04 290.53) rotate(-29.98)" xlink:href="#star"/><use width="17" height="17" transform="translate(258.32 366.45) rotate(-0.68)" xlink:href="#star"/><use width="17" height="17" transform="translate(347.72 524.02)" xlink:href="#star"/><use width="17" height="17" transform="translate(687 707.19) rotate(-0.86)" xlink:href="#star"/><use width="17" height="17" transform="translate(832.8 782.52)" xlink:href="#star"/><use width="17" height="17" transform="translate(1198.97 440.84) rotate(-32.15)" xlink:href="#star"/><use width="17" height="17" transform="translate(1155.89 298.32) rotate(-5.8)" xlink:href="#star"/><use width="17" height="17" transform="translate(981.61 207.13) rotate(0.87)" xlink:href="#star"/><use width="17" height="17" transform="translate(709.78 242.64) rotate(8.41)" xlink:href="#star"/><use width="17" height="17" transform="translate(536.06 380.3) rotate(-8.28)" xlink:href="#star"/><use width="17" height="17" transform="translate(505.13 532.39) rotate(8.63)" xlink:href="#star"/><use width="17" height="17" transform="translate(338.82 815.89)" xlink:href="#star"/><use width="17" height="17" transform="translate(835.18 489.71) rotate(4.65)" xlink:href="#star"/><use width="17" height="17" transform="translate(515.97 207.17) rotate(3.35)" xlink:href="#star"/><use width="17" height="17" transform="translate(91.88 77.35) rotate(15.36)" xlink:href="#star"/><use width="17" height="17" transform="translate(321.84 39.29) rotate(5.75)" xlink:href="#star"/><use width="17" height="17" transform="translate(-10.85 151.57)" xlink:href="#star"/><use width="17" height="17" transform="translate(1377.75 96.34) rotate(-33)" xlink:href="#star"/><use width="17" height="17" transform="translate(1207 52) rotate(-51.41)" xlink:href="#star"/><use width="17" height="17" transform="translate(1801.76 326.19)" xlink:href="#star"/></g><g id="galaxy"><path class="cls-2" d="M0,183.67c76.49-87,233.5-30.17,399.5,234.83s-39,400,184,389S1118.41,946,1075.67,1080C993.94,1336.2,208.23,1250.17,0,1080-173.51,938.2-147.95,352,0,183.67Z"/><path class="cls-3" d="M1229,0c-61.2,182.32-112.5,308.5-34.5,371.5s232-170,340-85,302-83,245,150S1860.38,713,1920,677c173.72-104.81,303.86-633.67,177-792-126.52-157.91-361,79-537-14C1427.3-199.12,1242.44-40,1229,0Z"/><path class="cls-4" d="M161.5,478.5c182.13,106.66,299,55.82,339,114,55.8,81.2,20.35,166.09,104,280,18,24.58,63.92,87,144,119,103.61,41.35,164.4-8.31,295,1,59.54,4.24,285.93-31.76,252,87-89,311.41-1117.74,327.71-1324.5,68.5C-179.4,959.44-240.82,197.13,0,183.67,83.91,179,89,436,161.5,478.5Z"/><path class="cls-5" d="M1492.5,120.5c22.59,44.35,103.12,56.43,136,120,25.23,48.77,18.75,81,46,108,26,25.79,83.67,54.43,206,7,49-19,22.3,54.59,39.5,57.5,101.8,17.22,73-340,0-413-100-100-506-128.21-565.67,0C1293.9,129.85,1465.5,67.5,1492.5,120.5Z"/><path class="cls-6" d="M-40,713c13-31.37,31.05-62.25,64-81,49.45-28.14,125.16-24.86,171,14,62.32,52.84,30.36,138.34,92,172,19.62,10.71,20.58.81,95,11,59.81,8.19,93.49,12.8,131,32,45.7,23.39,72.9,56.06,92,79,42.46,51,36.74,71,70,110,58.48,68.61,108.87-28.71,126,84,19,125-621.24,343.22-833,72C-167.73,1032.16-50.46,738.29-40,713Z"/><path class="cls-7" d="M-17,743c25.34-9.25,56.39,11.09,70,20,70.61,46.26,48.17,123,110,162,11,6.94,45.67,10.29,115,17,102.93,10,111.19,5,156,15,30,6.71,76.3,17.52,125,50,25.72,17.15,92.36,61.59,85,96-6.69,31.27-72,42.58-241,58-239.83,21.89-360.54,32.17-400,0C-124,1057.48-91.73,770.28-17,743Z"/><path class="cls-8" d="M1485-37c-1.36,18.34,34.92,22.78,77,84,34.12,49.64,23.59,66.1,53,95,34.28,33.68,61.7,24.21,115,55,45,26,39.26,50.65,88,81,16.08,10,38.62,23.77,70,30,47.51,9.43,100.39-1.38,130-23,76.31-55.73,69.22-235.23-12-332C1858-223.37,1489.26-94.45,1485-37Z"/><path class="cls-9" d="M1788-26c-49.78,3.76-122.5,9.26-144,56-10.63,23.11-8.35,55.47,8,75,17,20.26,39,14.62,87,29,33.6,10.06,67.5,20.21,91,44,44.75,45.32,10.85,98.72,51,145,29.17,33.63,86.91,51.35,123,34,77.4-37.22,99.37-257.06-7-346C1939.09-37.42,1861.65-31.57,1788-26Z"/></g><g id="earth"><path class="cls-10" d="M2185.5,1020.5c0,278.35-225.65,504-504,504s-504-225.65-504-504c0-170.8,93-294.29,117.87-323.93,12-14.26,160-184.68,386.13-180.07C1922.09,521.4,2185.5,723,2185.5,1020.5Z"/><path class="cls-11" d="M1537,722c-60.73,12-88.51,72.6-107,71-63.5-5.5-38.5-33.5-75.67-110.67a75.47,75.47,0,0,0-19.78-25.74c-22.45,20.49-35.9,36.08-39.18,40-22.27,26.49-98.89,128-114.91,271.18C1213.41,954,1240,994,1240,994a145.89,145.89,0,0,0,53,14c53,3.48,93.21-24.32,104-32,57.47-40.94,59.48-94.58,96-96,17.63-.69,19,11.73,44,18,38.55,9.67,100.09-3.63,123-52,15.37-32.44,11.4-76.52-15-104C1611.6,707.24,1560,717.45,1537,722Z"/><path class="cls-12" d="M1681.5,516.5a442.42,442.42,0,0,0-96,8.56s29,48.44,72,57.44,196.27-9.3,226.63-17.15C1819.06,534.92,1749.37,517.88,1681.5,516.5Z"/><path class="cls-13" d="M1920.74,815.67c-56.24,9.83-102.24-5.17-125.24,102.83s-112,105-14,168,139.24,87.83,139.24,87.83L1974.5,963.5Z"/></g></svg>